<svg width="793" height="587" viewBox="0 0 793 587" fill="none" xmlns="http://www.w3.org/2000/svg">
<g id="kartman">
<path id="Vector" d="M488.626 28.3717H364.434V29.35H488.626V28.3717Z" fill="#F2F2F2"/>
<path id="Vector_2" d="M455.033 29.35H454.015V44.025H455.033V29.35Z" fill="#F2F2F2"/>
<path id="Vector_3" d="M401.081 29.35H399.045V44.025H401.081V29.35Z" fill="#F2F2F2"/>
<path id="Vector_4" d="M551.741 103.703H427.548V105.66H551.741V103.703Z" fill="#F2F2F2"/>
<path id="Vector_5" d="M463.177 90.0067H461.141V103.703H463.177V90.0067Z" fill="#F2F2F2"/>
<path id="Vector_6" d="M517.13 90.0067H516.112V103.703H517.13V90.0067Z" fill="#F2F2F2"/>
<path id="Vector_7" d="M716.652 138.923H592.46V140.88H716.652V138.923Z" fill="#F2F2F2"/>
<path id="Vector_8" d="M628.089 125.227H627.071V139.902H628.089V125.227Z" fill="#F2F2F2"/>
<path id="Vector_9" d="M682.589 124.709H680.819V139.228H682.589V124.709Z" fill="#F2F2F2"/>
<path id="Vector_10" d="M704.715 502.978H580.809V504.547H704.715V502.978Z" fill="#F2F2F2"/>
<path id="Vector_11" d="M616.211 488.851H614.441V503.37H616.211V488.851Z" fill="#F2F2F2"/>
<path id="Vector_12" d="M670.199 488.851H668.429V503.37H670.199V488.851Z" fill="#F2F2F2"/>
<path id="Vector_13" d="M531.381 441.228H407.189V442.207H531.381V441.228Z" fill="#F2F2F2"/>
<path id="Vector_14" d="M442.818 426.553H440.782V441.228H442.818V426.553Z" fill="#F2F2F2"/>
<path id="Vector_15" d="M496.77 426.553H495.752V441.228H496.77V426.553Z" fill="#F2F2F2"/>
<path id="Vector_16" d="M729.886 383.507H605.693V385.463H729.886V383.507Z" fill="#F2F2F2"/>
<path id="Vector_17" d="M641.322 369.81H640.304V384.485H641.322V369.81Z" fill="#F2F2F2"/>
<path id="Vector_18" d="M695.865 368.779H694.095V383.297H695.865V368.779Z" fill="#F2F2F2"/>
<g id="cart">
<path id="Vector_19" d="M323.519 456.098H116.141L71.2696 324.809H369.73L369.458 325.582L323.519 456.098Z" fill="#F2F2F2"/>
<path id="Vector_20" d="M398.795 302.541L397.334 302.197L407.306 268.877H465.313V270.217H408.469L398.795 302.541Z" fill="#2F2E41"/>
<path id="Vector_21" d="M293.793 585.043C302.556 585.043 309.66 578.745 309.66 570.977C309.66 563.208 302.556 556.91 293.793 556.91C285.029 556.91 277.925 563.208 277.925 570.977C277.925 578.745 285.029 585.043 293.793 585.043Z" fill="#3F3D56"/>
<path id="Vector_22" d="M319.483 552.221H109.428V550.882H317.971V485.907H127.087L117.814 468.78L119.176 468.201L128.038 484.566H319.483V552.221Z" fill="#2F2E41"/>
<path id="Vector_23" d="M478.158 280.934C483.583 280.934 487.98 277.036 487.98 272.226C487.98 267.417 483.583 263.518 478.158 263.518C472.733 263.518 468.335 267.417 468.335 272.226C468.335 277.036 472.733 280.934 478.158 280.934Z" fill="#3F3D56"/>
<path id="Vector_24" d="M137.385 585.043C146.148 585.043 153.252 578.745 153.252 570.977C153.252 563.208 146.148 556.91 137.385 556.91C128.621 556.91 121.517 563.208 121.517 570.977C121.517 578.745 128.621 585.043 137.385 585.043Z" fill="#3F3D56"/>
<path id="Vector_25" d="M341.949 463.802H105.846L54.7591 315.766H394.561L394.252 316.637L341.949 463.802ZM106.964 462.462H340.841L392.501 317.106H56.8016L106.964 462.462Z" fill="#2F2E41"/>
<path id="Vector_26" d="M293.07 316.394L282.222 463.086L283.73 463.174L294.578 316.482L293.07 316.394Z" fill="#2F2E41"/>
<path id="Vector_27" d="M224.972 316.002H223.954V462.752H224.972V316.002Z" fill="#2F2E41"/>
<path id="Vector_28" d="M377.668 361.005H71.2581V361.983H377.668V361.005Z" fill="#2F2E41"/>
<path id="Vector_29" d="M360.362 409.922H88.5635V410.9H360.362V409.922Z" fill="#2F2E41"/>
<path id="Vector_30" d="M156.273 316.392L154.765 316.48L165.55 463.175L167.058 463.088L156.273 316.392Z" fill="#2F2E41"/>
<path id="Vector_31" d="M793 585.043H0V587H793V585.043Z" fill="#2F2E41"/>
</g>
<path id="Vector_32" d="M526.291 48.2179C526.291 48.2179 539.346 80.9222 531.312 85.9536C523.279 90.985 558.426 132.075 558.426 132.075L600.603 122.012L577.506 87.6307C577.506 87.6307 574.494 53.2493 574.494 48.2179C574.494 43.1864 526.291 48.2179 526.291 48.2179Z" fill="#E6BD91"/>
<path id="Vector_33" d="M504.563 282.069C504.563 282.069 500.771 324.052 504.563 345.884C508.356 367.715 514.044 428.17 514.044 428.17C514.044 428.17 514.044 542.364 534.9 544.043C555.757 545.723 570.926 547.402 572.822 540.685C574.718 533.967 563.341 530.609 569.029 527.25C574.718 523.892 576.614 512.136 569.029 498.702C561.445 485.267 569.029 349.242 569.029 349.242L605.055 434.888C605.055 434.888 608.847 505.419 612.639 515.495C616.431 525.571 608.847 544.043 622.119 545.723C635.392 547.402 650.56 537.326 658.144 533.967C665.729 530.609 646.768 530.609 650.56 528.929C654.352 527.25 665.729 522.212 661.936 520.533C658.144 518.854 654.352 438.246 654.352 438.246C654.352 438.246 643.924 266.116 630.651 259.399C617.379 252.681 608.847 264.251 608.847 264.251L504.563 282.069Z" fill="#352A24"/>
<path id="Vector_34" d="M539.239 535.83V549.226C539.239 549.226 522.244 585.64 539.239 585.64C556.235 585.64 569.454 589.413 569.454 584.39V539.179L539.239 535.83Z" fill="#261414"/>
<path id="Vector_35" d="M650.654 535.806V549.202C650.654 549.202 667.649 585.616 650.654 585.616C633.658 585.616 620.44 589.39 620.44 584.366V539.155L650.654 535.806Z" fill="#261414"/>
<path id="Vector_36" d="M553.268 73.375C572.102 73.375 587.37 59.7965 587.37 43.0467C587.37 26.2968 572.102 12.7183 553.268 12.7183C534.434 12.7183 519.166 26.2968 519.166 43.0467C519.166 59.7965 534.434 73.375 553.268 73.375Z" fill="#E6BD91"/>
<path id="Vector_37" d="M531.711 98.8117C531.711 98.8117 542.716 124.107 560.325 119.048L577.933 113.989L608.747 275.88C608.747 275.88 584.536 302.862 549.32 285.999C514.103 269.135 531.711 98.8117 531.711 98.8117Z" fill="#18C7EE"/>
<path id="Vector_38" d="M569.046 94.1788L577.621 78.2667C577.621 78.2667 628.115 99.2038 635.736 105.904C643.358 112.603 643.358 122.653 643.358 122.653L630.02 164.527C630.02 164.527 633.831 256.651 633.831 260.001C633.831 263.351 647.169 281.775 637.642 275.075C628.115 268.375 626.209 261.676 618.588 271.725C610.966 281.775 593.817 293.5 593.817 293.5L569.046 94.1788Z" fill="#EBFD1E"/>
<path id="Vector_39" d="M635.056 215.233L629.35 262.04C629.35 262.04 595.117 288.786 602.724 290.458C610.332 292.13 614.135 285.443 614.135 285.443C614.135 285.443 627.448 297.145 635.056 290.458C642.663 283.771 661.682 220.248 661.682 220.248L635.056 215.233Z" fill="#E6BD91"/>
<path id="Vector_40" d="M553.466 0.102942C545.939 -0.138316 537.884 -0.257657 531.538 3.37911C528.618 5.20424 526.057 7.45207 523.96 10.0306C517.779 17.0364 512.439 25.8512 514.734 34.5434L517.401 33.611C517.401 35.9312 516.826 38.2224 515.717 40.3188C516.092 39.3398 517.35 40.9224 517.013 41.9127L514.076 50.553C518.904 48.9659 524.911 52.1794 525.646 56.7433C525.982 46.7075 527.143 35.1995 536.223 29.3232C540.802 26.3597 546.597 25.4551 552.173 24.6517C557.316 23.9106 562.708 23.2039 567.635 24.7221C572.562 26.2404 576.757 30.7581 575.64 35.3205C577.912 34.6189 580.453 36.0384 581.575 37.943C582.698 39.8477 582.757 42.0945 582.791 44.2486C585.212 45.783 587.968 42.7361 588.955 40.229C591.272 34.3441 593.331 28.0798 592.083 21.9403C590.835 15.8008 585.255 9.93354 578.295 9.91272C579.14 9.08071 579.59 7.98668 579.552 6.86204L573.815 6.42743C575.271 6.24253 576.611 5.60938 577.604 4.63641C575.3 6.90887 557.191 0.222322 553.466 0.102942Z" fill="#2F2E41"/>
<path id="Vector_41" d="M552.278 85.0331C552.278 85.0331 536.822 71.6108 531.259 72.433C525.697 73.2552 518.102 85.0331 518.102 85.0331C518.102 85.0331 472.534 98.4935 474.433 111.954C476.331 125.414 497.217 191.034 497.217 191.034C497.217 191.034 514.305 270.114 499.115 278.527C483.926 286.94 571.265 308.813 573.164 298.717C575.062 288.622 578.86 187.669 573.164 172.526C567.468 157.383 552.278 85.0331 552.278 85.0331Z" fill="#EBFD1E"/>
<path id="Vector_42" d="M617.909 115.443H641.763C641.763 115.443 658.422 179.502 660.351 186.245C662.281 192.988 666.139 225.017 664.21 225.017C662.281 225.017 623.696 218.274 623.696 223.331L617.909 115.443Z" fill="#EBFD1E"/>
<path id="Vector_43" d="M617.909 273.933H528.055C519.287 238.041 518.554 203.362 528.055 170.23H617.909C603.408 202.766 602.502 237.207 617.909 273.933Z" fill="#F2F2F2"/>
<path id="Vector_44" d="M491.68 229.721L518.098 239.513C518.098 239.513 569.046 246.04 569.046 228.089C569.046 210.138 518.098 219.93 518.098 219.93L501.114 215.233L491.68 229.721Z" fill="#E6BD91"/>
<path id="Vector_45" d="M497.599 105.66L474.825 110.686L457.745 199.482C457.745 199.482 452.052 222.938 461.541 224.613C471.03 226.288 497.599 239.692 497.599 239.692C497.599 239.692 501.395 214.561 508.986 214.561L490.008 201.158L501.395 142.519L497.599 105.66Z" fill="#EBFD1E"/>
<path id="Vector_46" d="M219.882 45.0033H95.6893V45.9817H219.882V45.0033Z" fill="#F2F2F2"/>
<path id="Vector_47" d="M185.271 45.9817H184.253V60.6567H185.271V45.9817Z" fill="#F2F2F2"/>
<path id="Vector_48" d="M131.484 45.7467H130.465V60.3467H131.484V45.7467Z" fill="#F2F2F2"/>
<path id="Vector_49" d="M281.978 120.335H157.786V122.292H281.978V120.335Z" fill="#F2F2F2"/>
<path id="Vector_50" d="M193.415 105.66H192.397V120.335H193.415V105.66Z" fill="#F2F2F2"/>
<path id="Vector_51" d="M247.367 105.66H246.349V120.335H247.367V105.66Z" fill="#F2F2F2"/>
</g>
</svg>
